<svg xmlns="http://www.w3.org/2000/svg" version="1.1" xmlns:xlink="http://www.w3.org/1999/xlink" xmlns:svgjs="http://svgjs.com/svgjs" width="1440" height="560" preserveAspectRatio="none" viewBox="0 0 1440 560">
    <g mask="url(&quot;#SvgjsMask1010&quot;)" fill="none">
        <path d="M831.132,136.803C857.364,137.976,887.757,137.874,901.468,115.48C915.53,92.512,903.1,64.418,889.782,41.01C876.262,17.248,858.47,-8.394,831.132,-8.141C804.046,-7.89,786.664,17.961,774.333,42.078C763.331,63.596,758.483,88.913,770.912,109.64C783.05,129.882,807.554,135.748,831.132,136.803" fill="rgba(28, 83, 142, 0.4)" class="triangle-float3"></path>
        <path d="M451.48212144674613 30.903039908943285L351.7938024210794-7.363720478146952 313.5270420339892 92.32459854751977 413.2153610596559 130.59135893461z" fill="rgba(28, 83, 142, 0.4)" class="triangle-float1"></path>
        <path d="M149.97058449169342 515.2909380244934L303.2621461520947 580.3593454867754 368.33055361437675 427.0677838263741 215.03899195397548 361.9993763640921z" fill="rgba(28, 83, 142, 0.4)" class="triangle-float1"></path>
        <path d="M808.4142546647292 216.43111918435966L934.0895322548691 140.91779409508763 858.5762071655971 15.242516504947702 732.9009295754572 90.75584159421973z" fill="rgba(28, 83, 142, 0.4)" class="triangle-float2"></path>
        <path d="M760.1548317054028 328.35113278807773L750.7376850834655 434.82085258017065 836.0944671697553 396.8175647097247z" fill="rgba(28, 83, 142, 0.4)" class="triangle-float1"></path>
        <path d="M86.27845112706463 377.3966067787868L123.74322228844524 454.2107710148548 220.23208306185694 359.60653215474986z" fill="rgba(28, 83, 142, 0.4)" class="triangle-float3"></path>
        <path d="M800.037,234.29C822.473,235.111,845.83,229.368,858.275,210.682C872.034,190.023,875.167,162.323,861.966,141.304C849.39,121.281,823.642,116.587,800.037,117.955C779.07,119.17,759.921,129.646,749.409,147.828C738.886,166.029,738.122,188.53,748.745,206.672C759.261,224.632,779.239,233.529,800.037,234.29" fill="rgba(28, 83, 142, 0.4)" class="triangle-float2"></path>
        <path d="M850.0347445689781 377.59410427298303L852.4346134485581 240.10570824298804 712.5463485389831 375.194235393403z" fill="rgba(28, 83, 142, 0.4)" class="triangle-float3"></path>
        <path d="M1051.035847928589 477.4390407977075L1081.1805361642616 394.61719055369747 998.3586859202516 364.4725023180248 968.2139976845789 447.2943525620348z" fill="rgba(28, 83, 142, 0.4)" class="triangle-float1"></path>
        <path d="M1015.9125502775304 268.4198580367306L1084.2141897018473 429.75575764619543 1178.5031905912094 309.0713399500106z" fill="rgba(28, 83, 142, 0.4)" class="triangle-float2"></path>
        <path d="M1521.6238410229764 280.30618840545606L1412.3449769479546 129.59489921581405 1343.5707737311147 277.0816539668579z" fill="rgba(28, 83, 142, 0.4)" class="triangle-float2"></path>
    </g>
    <defs>
        <mask id="SvgjsMask1010">
            <rect width="1440" height="560" fill="#ffffff"></rect>
        </mask>
        <style>
            @keyframes float1 {
                0%{transform: translate(0, 0)}
                50%{transform: translate(-50px, 0)}
                100%{transform: translate(0, 0)}
            }

            .triangle-float1 {
                animation: float1 5s infinite;
            }

            @keyframes float2 {
                0%{transform: translate(0, 0)}
                50%{transform: translate(-5px, -5px)}
                100%{transform: translate(0, 0)}
            }

            .triangle-float2 {
                animation: float2 4s infinite;
            }

            @keyframes float3 {
                0%{transform: translate(0, 0)}
                50%{transform: translate(0, -10px)}
                100%{transform: translate(0, 0)}
            }

            .triangle-float3 {
                animation: float3 6s infinite;
            }
        </style>
    </defs>
</svg>