<svg xmlns="http://www.w3.org/2000/svg" version="1.1" xmlns:xlink="http://www.w3.org/1999/xlink" xmlns:svgjs="http://svgjs.com/svgjs" width="1440" height="560" preserveAspectRatio="none" viewBox="0 0 1440 560">
    <g mask="url(&quot;#SvgjsMask1001&quot;)" fill="none">
        <path d="M720 705.14C829.04 708.84 923.59 637.85 998.7 558.7 1071.53 481.96 1119.94 385.74 1123.48 280 1127.15 170.52 1094.07 60.84 1018.01-18.01 940.69-98.15 831.21-132.9 720-138.27 602.19-143.98 477.34-129.39 391.7-48.3 304.28 34.45 264.4 160.42 278.2 280 290.82 389.24 380.41 464.14 459.63 540.37 536.57 614.39 613.31 701.5 720 705.14" fill="#1c538e"></path>
        <path d="M720 555.09C790.55 557.49 851.74 511.55 900.33 460.33 947.46 410.68 978.79 348.42 981.07 280 983.45 209.16 962.04 138.19 912.83 87.17 862.8 35.32 791.96 12.83 720 9.36 643.77 5.66 562.99 15.1 507.57 67.57 451.01 121.12 425.2 202.63 434.13 280 442.29 350.69 500.26 399.15 551.52 448.48 601.31 496.37 650.96 552.73 720 555.09" fill="#2774c6"></path>
        <path d="M720 405.04C752.07 406.13 779.88 385.25 801.97 361.97 823.39 339.4 837.63 311.1 838.67 280 839.75 247.8 830.02 215.54 807.65 192.35 784.91 168.78 752.71 158.56 720 156.98 685.35 155.3 648.63 159.59 623.44 183.44 597.73 207.78 586 244.83 590.06 280 593.77 312.13 620.12 334.16 643.42 356.58 666.05 378.35 688.62 403.97 720 405.04" fill="#488fdb"></path>
    </g>
    <defs>
        <mask id="SvgjsMask1001">
            <rect width="1440" height="560" fill="#ffffff"></rect>
        </mask>
    </defs>
</svg>